<svg xmlns="http://www.w3.org/2000/svg" viewBox="0 0 512 512"><title>setViewToCamera</title><g id="Layer_2" data-name="Layer 2"><g id="Layer_1-2" data-name="Layer 1"><rect width="512" height="512" fill="#1f85ff" opacity="0"/><path d="M65.56,119.1l179-79.83A19.58,19.58,0,0,1,259.92,39l193.92,79.49a19.58,19.58,0,0,1,11.57,22.89L417,334a19.58,19.58,0,0,1-5.36,9.29L265.21,485.37a19.58,19.58,0,0,1-26.64.59L83.46,348.28A19.58,19.58,0,0,1,77,335.9L54.08,139.26A19.58,19.58,0,0,1,65.56,119.1Z" fill="#fff"/><polygon points="79.83 131.82 252.17 58.38 441.14 130.84 252.17 237.57 79.83 131.82" fill="#39f"/><polygon points="75.92 154.34 95.5 327.65 243.35 459.84 243.35 257.15 75.92 154.34" fill="#1865b2"/><polygon points="260.98 257.15 263.92 455.92 397.08 330.59 441.14 154.34 260.98 257.15" fill="#1865b2"/><circle cx="253" cy="242" r="133" fill="none" stroke="#f77500" stroke-linecap="square" stroke-miterlimit="10" stroke-width="31" stroke-dasharray="70"/></g></g></svg>